# xmcd CD database file
#
# Track frame offsets:
#	150
#	18877
#	37863
#	64745
#	87046
#	113884
#	128517
#	175253
#
# Disc length: 2621 seconds
#
# Revision: 0
# Processed by: cddbd v1.5.2PL0 Copyright (c) Steve Scherf et al.
# Submitted via: CDex 1.70beta2
#
DISCID=550a3b08
DTITLE=Les Haferflocken Swingers - NIGHTBIRDS
DYEAR=2006
DGENRE=Jazz
TTITLE0=Heart Shaped Cake
TTITLE1=Sheep Stomp
TTITLE2=Horny Walker
TTITLE3=The Princess Of Urupia
TTITLE4=Neukoellnski Suite
TTITLE5=La Fleur Et Le Croissant
TTITLE6=Froggy Hop
TTITLE7=Night Birds
EXTD=YEAR: 2006
EXTT0=
EXTT1=
EXTT2=
EXTT3=
EXTT4=
EXTT5=
EXTT6=
EXTT7=
PLAYORDER=
